<?xml version="1.0" encoding="UTF-8" standalone="no"?>
<!DOCTYPE svg PUBLIC "-//W3C//DTD SVG 1.0//EN"
 "http://www.w3.org/TR/2001/REC-SVG-20010904/DTD/svg10.dtd">
<!-- Generated by dot version 1.13 (v16) (Mon August 23, 2004)
     For user: (arjen) Arjen Poutsma   Title: G    Pages: 1 -->
<svg width="525pt" height="192pt"
 viewBox = "-1 -1 524 191"
 xmlns="http://www.w3.org/2000/svg">
<g id="graph0" class="graph" style="font-family:Times-Roman;font-size:14.00;">
<title>G</title>
<g id="node1" class="node"><title>c1</title>
<polygon style="fill:none;stroke:black;" points="259,40 374,40 374,4 259,4 259,40"/>
<text text-anchor="middle" x="316" y="25" style="font-family:Arial Italic;font-size:10.00;">XmlMappingException</text>
</g>
<g id="node2" class="node"><title>c2</title>
<polygon style="fill:none;stroke:black;" points="88,112 321,112 321,76 88,76 88,112"/>
<text text-anchor="middle" x="204" y="97" style="font-family:Arial Regular;font-size:10.00;">GenericMarshallingFailureException</text>
</g>
<g id="edge2" class="edge"><title>c1-&gt;c2</title>
<path style="fill:none;stroke:black;" d="M279,46C264,56 246,67 232,76"/>
<polygon style="fill:none;stroke:black;" points="278,43 288,40 282,48 278,43"/>
</g>
<g id="node8" class="node"><title>c5</title>
<polygon style="fill:none;stroke:black;" points="338,112 518,112 518,76 338,76 338,112"/>
<text text-anchor="middle" x="428" y="97" style="font-family:Arial Regular;font-size:10.00;">ValidationFailureException</text>
</g>
<g id="edge8" class="edge"><title>c1-&gt;c5</title>
<path style="fill:none;stroke:black;" d="M353,46C368,56 386,67 400,76"/>
<polygon style="fill:none;stroke:black;" points="350,48 344,40 354,43 350,48"/>
</g>
<g id="node4" class="node"><title>c3</title>
<polygon style="fill:none;stroke:black;" points="5,184 191,184 191,148 5,148 5,184"/>
<text text-anchor="middle" x="98" y="169" style="font-family:Arial Regular;font-size:10.00;">MarshallingFailureException</text>
</g>
<g id="edge4" class="edge"><title>c2-&gt;c3</title>
<path style="fill:none;stroke:black;" d="M168,118C154,128 138,139 124,148"/>
<polygon style="fill:none;stroke:black;" points="167,115 177,112 171,120 167,115"/>
</g>
<g id="node6" class="node"><title>c4</title>
<polygon style="fill:none;stroke:black;" points="209,184 413,184 413,148 209,148 209,184"/>
<text text-anchor="middle" x="311" y="169" style="font-family:Arial Regular;font-size:10.00;">UnmarshallingFailureException</text>
</g>
<g id="edge6" class="edge"><title>c2-&gt;c4</title>
<path style="fill:none;stroke:black;" d="M240,118C254,128 271,139 284,148"/>
<polygon style="fill:none;stroke:black;" points="237,120 231,112 241,115 237,120"/>
</g>
</g>
</svg>
