<?xml version="1.0" encoding="utf-8"?>
<!-- Generator: Adobe Illustrator 24.0.3, SVG Export Plug-In . SVG Version: 6.00 Build 0)  -->
<svg version="1.1" id="Layer_1" xmlns="http://www.w3.org/2000/svg" xmlns:xlink="http://www.w3.org/1999/xlink" x="0px" y="0px"
	 viewBox="0 0 510 510" style="enable-background:new 0 0 510 510;" xml:space="preserve">
<style type="text/css">
	.st0{fill:#6DB33F;}
</style>
<title>icon-framework</title>
<g id="Layer_2_1_">
	<g id="Layer_1-2">
		<path class="st0" d="M479.2,162.5c-5.6-34.3-20.5-64.4-43.9-87.8S382,36.5,347.6,30.9C320.1,11.2,288.5,0,255,0
			s-65.1,11.2-92.6,30.9C128,36.5,98,51.3,74.7,74.7C50.9,98.4,36.5,128.7,31,162.2C11.2,189.8,0,221.4,0,255s11.2,65.2,31,92.8
			c5.5,33.5,19.9,63.8,43.7,87.5c23.3,23.3,53.3,38.2,87.7,43.8C190,498.8,221.5,510,255,510s65-11.2,92.6-30.9
			c34.4-5.6,64.4-20.5,87.7-43.8c23.8-23.8,38.1-54.1,43.7-87.5c19.8-27.6,31-59.2,31-92.8S498.8,190,479.2,162.5z M473,224.2
			c-0.8,6-1.9,11.9-3.2,17.9c-7.2-22.4-17.1-43.8-29.4-63.8c-5.5-22.8-13.6-44.9-24.4-65.8c22.9,14.8,42.2,32.6,56.7,52.6
			C475.7,184.6,475.8,204.6,473,224.2z M444.7,199.6c9.3,17.7,16.6,36.3,21.9,55.6c-5.3,19.3-12.7,37.9-22,55.6
			C450.9,274,451,236.4,444.7,199.6L444.7,199.6z M175.4,341.1c6.5-4.5,13.7-7.8,21.3-9.8c32.2-7.5,46.7-9.9,66.3-18.4
			c36.8-15.9,74.8-53.3,84.6-94c-16.1,38.8-59.5,70.2-97.9,81.6c-26.2,7.8-79.8,13.6-80.1,13.6l-1.4-1.2
			c-30.6-17.4-27-85.8,31.8-104.1c25.7-8,55.9-0.7,83.5-5.4c29.4-5,64.4-24.5,79.9-52c12.3,46.4,26.1,118.5-9.7,160.2
			C309.4,363,211.8,318,175.4,341.1z M310.8,444.6c-17.7,9.4-36.5,16.8-55.8,22.1c-19.4-5.3-38.1-12.7-55.8-22.1
			C236.1,450.9,273.9,450.9,310.8,444.6z M117.6,392.4c13.1,13.1,27.3,25.1,42.3,35.8c-19-5.9-37.2-13.8-54.5-23.7
			c-9.9-17.3-17.8-35.7-23.7-54.7C92.4,365.1,104.5,379.3,117.6,392.4z M81.7,160.1c5.9-19,13.9-37.4,23.7-54.7
			c17.3-9.8,35.5-17.8,54.5-23.7c-15.1,10.8-29.2,22.7-42.3,35.8C104.5,130.7,92.4,144.9,81.7,160.1z M149.1,346.4
			c-8.5,0.2-15.5-6.5-15.7-15c-0.2-8.5,6.5-15.5,15-15.7c8.5-0.2,15.5,6.5,15.7,15c0,0,0,0.1,0,0.1
			C164.2,339.3,157.5,346.2,149.1,346.4L149.1,346.4z M199.2,65.4c17.7-9.4,36.5-16.8,55.8-22.1c19.4,5.3,38.1,12.7,55.8,22.1
			C273.9,59.1,236.1,59.1,199.2,65.4L199.2,65.4z M392.4,392.4c13.1-13.1,25.1-27.3,35.9-42.4c-5.9,19-13.9,37.3-23.7,54.5
			c-17.3,9.8-35.5,17.7-54.5,23.7C365.2,417.5,379.3,405.5,392.4,392.4L392.4,392.4z M392.4,117.6c-13.1-13.1-27.2-25.1-42.3-35.8
			c19,5.9,37.2,13.9,54.5,23.7c9.8,17.3,17.8,35.6,23.7,54.7C417.6,144.9,405.5,130.7,392.4,117.6L392.4,117.6z M430.5,79.5
			c19.4,19.3,32.6,43.6,39.3,71.1c-16.2-19.2-36.6-36.2-60.4-50c-13.8-23.8-30.8-44.2-50-60.4C387.1,46.9,411.2,60.1,430.5,79.5
			L430.5,79.5z M397.6,94c-20.8-10.7-42.8-18.8-65.6-24.2c-20-12.4-41.5-22.4-63.9-29.6c15.5-3.4,31.3-5.1,47.2-5.2
			c10,0,19.9,0.8,29.7,2.3C365.1,51.8,382.8,71.1,397.6,94z M255,6.8c27.6,0,53.8,8,77.4,22.2c-5.6-0.5-11.3-0.7-17.1-0.7
			c-20.4,0.1-40.6,2.8-60.3,8.1c-19.7-5.3-39.9-8-60.3-8.1c-5.8,0-11.5,0.2-17.1,0.7C201.2,14.7,227.4,6.8,255,6.8z M165,37.3
			c9.8-1.5,19.8-2.3,29.7-2.3c15.9,0.1,31.7,1.8,47.2,5.2C219.5,47.4,198,57.3,178,69.8c-22.7,5.4-44.8,13.6-65.6,24.2
			C127.2,71.1,144.9,51.8,165,37.3z M79.5,79.5c19.3-19.3,43.5-32.6,71.1-39.3c-19.2,16.2-36.2,36.6-50,60.4
			c-23.7,13.8-44,30.6-60.2,49.8C47,123.4,59.8,99.1,79.5,79.5z M37.4,164.9c14.6-20,33.8-37.7,56.6-52.4
			c-10.7,20.9-18.8,43-24.3,65.8c-12.3,20-22.2,41.4-29.4,63.8C34.6,215.4,33.5,189.3,37.4,164.9z M65.4,310.4
			c-9.3-17.6-16.6-36.2-21.9-55.4c5.3-19.2,12.6-37.8,21.9-55.4C59.1,236.3,59.1,273.7,65.4,310.4L65.4,310.4z M29.2,332.8
			c-14.4-23.7-22.4-50-22.4-77.8s8.1-54.1,22.4-77.8c-2.1,25,0.4,51.3,7.4,77.8C29.5,281.5,27,307.8,29.2,332.8z M40.3,268
			c7.2,22.3,17.1,43.7,29.4,63.7c5.5,22.8,13.6,44.9,24.3,65.8c-22.8-14.7-42-32.5-56.6-52.4C33.5,320.7,34.6,294.6,40.3,268z
			 M79.5,430.5c-19.6-19.6-32.5-43.9-39.1-70.9c16.1,19.1,36.5,36,60.2,49.8c13.8,23.7,30.8,44.2,50,60.4
			C122.9,463.1,98.8,449.9,79.5,430.5z M112.5,416c20.8,10.7,42.8,18.8,65.5,24.2c20,12.4,41.5,22.4,63.9,29.6
			c-15.5,3.4-31.3,5.1-47.2,5.1c-10,0-19.9-0.8-29.7-2.3C144.9,458.1,127.2,438.9,112.5,416L112.5,416z M255,503.2
			c-27.6,0-53.8-8-77.4-22.2c5.6,0.5,11.3,0.7,17.1,0.7c20.4-0.1,40.6-2.8,60.3-8.1c19.7,5.3,39.9,8,60.3,8.1
			c5.8,0,11.5-0.2,17.1-0.7C308.8,495.3,282.6,503.2,255,503.2z M345,472.7c-9.8,1.5-19.8,2.3-29.7,2.3c-15.9-0.1-31.7-1.8-47.2-5.1
			c22.4-7.2,43.9-17.2,63.9-29.6c22.7-5.4,44.8-13.6,65.6-24.2C382.8,438.9,365.1,458.1,345,472.7z M430.5,430.5
			c-19.3,19.3-43.5,32.6-71.1,39.3c19.2-16.2,36.2-36.6,50-60.4c23.7-13.8,44-30.6,60.2-49.8C463.1,386.6,450.1,410.9,430.5,430.5
			L430.5,430.5z M472.6,345.1c-14.6,20-33.8,37.7-56.6,52.4c10.7-20.8,18.8-42.8,24.3-65.6c12.3-20,22.2-41.3,29.5-63.7
			C475.4,294.7,476.5,320.8,472.6,345.1L472.6,345.1z M473.5,255.3c2.6-9.9,4.7-20,6.1-30.1c2.2-15.7,2.7-31.7,1.4-47.5
			c14.2,23.6,22.2,49.8,22.2,77.4s-8.1,54.1-22.4,77.8C482.9,307.9,480.5,281.6,473.5,255.3L473.5,255.3z"/>
	</g>
</g>
</svg>
